<svg width="24" height="24" viewBox="0 0 24 24" fill="none" xmlns="http://www.w3.org/2000/svg">

  <!-- Cloud -->
  <path d="M5.5 12H18C19.66 12 21 10.77 21 9.25
           C21 7.73 19.66 6.5 18 6.5
           C17.58 6.5 17.18 6.58 16.82 6.73
           C16.17 5.27 14.68 4.25 13 4.25
           C10.76 4.25 8.93 5.88 8.63 8.02
           C8.24 7.78 7.78 7.65 7.29 7.65
           C5.58 7.65 4.25 8.87 4.25 10.38
           C4.25 11.27 4.76 12 5.5 12Z" fill="#90A4AE"></path>

  <!-- Drizzle -->
  <g stroke="#64B5F6" stroke-width="1.4" stroke-linecap="round">
    <line x1="7" y1="15" x2="6.3" y2="17"></line>
    <line x1="11" y1="15" x2="10.3" y2="17"></line>
    <line x1="15" y1="15" x2="14.3" y2="17"></line>
    <line x1="19" y1="15" x2="18.3" y2="17"></line>
    <line x1="9" y1="19" x2="8.3" y2="21"></line>
    <line x1="13" y1="19" x2="12.3" y2="21"></line>
    <line x1="17" y1="19" x2="16.3" y2="21"></line>
  </g>
</svg>